<svg xmlns="http://www.w3.org/2000/svg" version="1.2" baseProfile="tiny" width="304" height="384" viewBox="24 -16 152 192"><path d="M 100,28 L172,100 100,172 28,100 100,28 Z" stroke-width="4" stroke="black" fill="rgb(255,128,128)" fill-opacity="1" ></path><path d="M60,70L140,130M60,130L140,70" stroke-width="4" stroke="black" fill="black" ></path><path d="M125,80 C150,80 150,120 125,120 L75,120 C50,120 50,80 75,80 Z" stroke-width="4" stroke="black" fill="none" ></path><g transform="translate(0,0)" stroke-width="4" stroke="black" fill="none" ><path d="M52.5,18 l25,-25 m0,25 l-25,-25    M87.5,18 l25,-25 m0,25 l-25,-25    M122.5,18 l25,-25 m0,25 l-25,-25" ></path></g></svg>