<svg xmlns="http://www.w3.org/2000/svg" version="1.2" baseProfile="tiny" width="316" height="296" viewBox="21 6 158 148"><path d="M25,50 l150,0 0,100 -150,0 z" stroke-width="4" stroke="black" fill="rgb(128,224,255)" fill-opacity="1" ></path><path d="M 122.8 66.8 C 119.9 66.8 117.4 68.6 117.4 71.6 L 117.4 73.1 L 128.7 73.1 L 128.7 72.4 C 128.7 68.8 126.5 66.8 122.8 66.8 z M 108.6 74.8 L 108.6 76 L 117.6 76 L 117.5 77.5 L 118 80.8 C 119.1 81.5 118.9 82.5 120.8 83.5 C 122.1 84.1 124 84 125.2 83.4 C 127.5 82.4 129 79.2 128.3 76 L 137.5 76 L 137.5 74.8 L 108.6 74.8 z M 94.8 82.1 C 93.3 82.1 92 83.5 92 85 L 92 85.2 C 92 86.6 96 91.3 97 92.6 C 98.2 94.3 100.8 98.8 103.2 98.8 C 104.5 98.8 111.1 93.7 112.6 92.8 L 112.6 106.2 L 126.4 85.6 C 123 85.6 114.9 85.2 112.2 85.9 C 110.2 86.4 105 91.6 103.6 91.7 C 103.4 91 100.6 87.5 100 86.5 C 99.2 85.4 97.2 82.1 95.6 82.1 L 94.8 82.1 z M 130.4 85.6 C 129.6 85.6 117.5 104.1 116.3 106.2 L 128.1 106.2 L 128.1 110.6 L 112.5 110.6 L 112.5 133.2 L 120.7 133.2 L 122 117.5 L 124.3 117.5 L 125.6 133.2 L 133.5 133.2 L 133.5 87.9 C 133.5 87.2 131.2 85.6 130.4 85.6 z M 66.9 90.7 C 66.5 91.4 62.5 96.9 62.5 96.9 C 62.5 97.8 76.7 107.2 78.5 108.3 C 81.4 110.2 83.9 112.1 86.7 114 C 88.2 115 89.4 115.9 90.8 116.8 C 92.1 117.7 94.1 118.5 94.1 120.4 L 94.1 133.2 L 105.5 133.2 L 105.5 121.7 C 105.5 120.6 107.2 119 107.2 118.8 C 107.2 117.6 106.1 118.6 105.6 116.9 C 105.2 115.4 105.4 115.6 104.5 114.5 C 103.5 113.1 101.9 112 99.8 112 C 96.8 112 97.6 111.8 95.3 110.3 C 93.9 109.3 92.5 108.4 91.2 107.4 C 88.7 105.5 85.8 103.5 83.2 101.8 C 80.9 100.3 68.2 91 66.9 90.7 z M 67.9 92.6 L 72.7 95.7 L 72.8 103 L 67.9 99.9 L 67.9 92.6 z M 77.8 99.3 L 82.6 102.6 L 82.6 110 L 77.8 106.6 L 77.8 99.3 z M 87.4 106.2 L 92.5 109.5 L 92.4 116.9 L 87.4 113.5 L 87.4 106.2 z" stroke-width="4" stroke="none" fill="black" ></path><path d="M 117.4 73.1 L 117.4 74.8 L 128.7 74.8 L 128.7 73.1 L 117.4 73.1 z M 126.4 85.6 L 112.6 106.2 L 112.6 110.6 L 128.1 110.6 L 128.1 106.2 L 116.4 106.2 C 117.5 104.1 129.6 85.6 130.4 85.6 L 126.4 85.6 z M 67.9 92.6 L 67.9 99.9 L 72.8 103 L 72.7 95.7 L 67.9 92.6 z M 77.8 99.3 L 77.8 106.6 L 82.6 110 L 82.6 102.6 L 77.8 99.3 z M 87.4 106.2 L 87.4 113.5 L 92.4 116.9 L 92.5 109.5 L 87.4 106.2 z " stroke-width="4" stroke="none" fill="rgb(239, 239, 239)" ></path><g transform="translate(0,0)" stroke-width="4" stroke="black" fill="none" ><path d="M100,40L100,15" ></path></g></svg>