<svg xmlns="http://www.w3.org/2000/svg" version="1.2" baseProfile="tiny" width="418" height="360" viewBox="24 -4 209 180"><path d="M 100,28 L172,100 100,172 28,100 100,28 Z" stroke-width="4" stroke="black" fill="rgb(255,128,128)" fill-opacity="1" ></path><path d="M100,80 l0,40 M81,90.5 l38,19 M81,109.5 l38,-19" stroke-width="4" stroke="black" fill="none" ></path><circle cx="100" cy="100" r="20" stroke-width="4" stroke="black" fill="none" ></circle><path d="M80,70 l40,0 M80,80 l25,-25 M100,80 l0,40 M81,90.5 l38,19 M81,109.5 l38,-19" stroke-width="4" stroke="black" fill="none" ></path><circle cx="100" cy="100" r="20" stroke-width="4" stroke="black" fill="none" ></circle><path d="M85,40 85,18 115,18 115,40 100,24 Z" stroke-width="4" stroke="black" fill="black" ></path><path d="M192,40 m5 -23c-3.7 3.72-5.82 8.75-5.82 14s2.12 10.3 5.82 14h2.68v-2.89c-2.78-2.88-4.5-6.8-4.5-11.1 0-4.31 1.72-8.23 4.5-11.1v-2.89zm25.7 0v2.89c2.78 2.88 4.5 6.8 4.5 11.1 0 4.31-1.72 8.23-4.5 11.1v2.89h2.68c3.7-3.72 5.81-8.76 5.82-14 0.014-5.24-2.05-10.3-5.72-14zm-20.5 11.8h18v4.4h-18z" stroke-width="4" stroke="none" fill="black" ></path></svg>